# Blender v2.76 (sub 0) OBJ File: ''
# www.blender.org
mtllib 0007.mtl
o 0007_Cube.406
v -0.058663 0.015045 0.012621
v -0.058593 0.014951 -0.017230
v -0.058773 -0.014945 -0.017426
v -0.058795 -0.014969 0.012813
v 0.001276 0.014988 0.012611
v 0.001215 -0.014937 0.012728
v 0.001283 0.014957 0.002648
v -0.002357 0.014957 0.001439
v -0.003988 0.014958 0.001480
v -0.006590 0.014961 0.001425
v -0.006586 0.014956 0.000035
v 0.001258 -0.004913 -0.017182
v 0.001238 -0.014928 -0.017248
v -0.006576 -0.014935 -0.003532
v 0.001225 -0.003563 0.023983
v 0.001236 0.002137 0.023926
v 0.001240 0.003706 0.023930
v 0.001238 0.003751 0.025494
v 0.001231 0.003789 0.031258
v 0.001241 0.015178 0.042528
v -0.006588 -0.014938 0.001364
v 0.001294 0.015029 -0.008796
v 0.031285 0.014969 0.011173
v 0.031411 0.015147 -0.017159
v -0.006584 0.014963 -0.001032
v -0.006461 0.014995 -0.006098
v -0.001578 0.015005 -0.005972
v 0.000969 0.015010 -0.005980
v 0.001020 0.014995 -0.003459
v 0.001034 0.014965 0.001355
v 0.031281 0.015050 -0.001674
v 0.000957 0.045253 0.001299
v -0.006591 0.045097 0.001487
v 0.031410 -0.014920 -0.017158
v 0.031241 -0.014864 -0.017158
v 0.031277 0.015003 -0.017159
v 0.001302 0.015004 -0.017183
v 0.001249 -0.015026 -0.047269
v -0.006515 -0.014934 -0.006066
v 0.001204 -0.015055 0.042601
v 0.001231 0.003789 0.031311
v 0.001222 -0.003795 0.031481
v 0.001222 -0.003793 0.029897
v 0.001225 -0.003667 0.023985
v -0.001405 -0.014936 0.001472
v 0.031293 0.015182 0.042633
v 0.031248 -0.014921 0.010166
v -0.006408 0.044982 -0.006129
v 0.000938 0.045180 -0.005940
v 0.031241 -0.014920 -0.017158
v 0.031269 0.014912 -0.047435
v 0.001334 0.014916 -0.047403
v 0.001000 -0.014931 -0.006021
v -0.006569 -0.044879 -0.006035
v -0.006587 -0.044740 0.001303
v 0.031258 -0.015100 0.042690
v 0.001109 -0.014935 0.001410
v 0.001185 -0.044918 0.001465
v 0.031268 -0.003764 0.030808
v 0.031268 -0.003765 0.031487
v 0.031277 0.003826 0.031326
v 0.031276 0.003804 0.027973
v 0.031275 0.003690 0.023953
v 0.031274 0.002778 0.023951
v 0.031270 -0.000343 0.023944
v 0.031266 -0.003687 0.023978
v 0.031267 -0.003760 0.027384
v 0.031231 -0.014942 -0.047398
v -0.004073 -0.014933 -0.006003
v 0.001102 -0.014934 -0.000999
v 0.001032 -0.044817 -0.006061
v -0.017686 0.003766 0.031301
v -0.017897 0.003717 0.023915
v -0.017766 -0.003655 0.023989
v -0.017676 -0.003815 0.031477
v 0.072284 0.003667 0.023985
v 0.072103 -0.003714 0.023969
v 0.072152 0.003876 0.031346
v 0.072265 -0.003724 0.031495
vn -1.000000 0.005200 -0.001500
vn 0.000800 0.005100 1.000000
vn 0.000900 1.000000 -0.003100
vn 0.003000 0.006500 -1.000000
vn 0.000400 -1.000000 -0.000600
vn -1.000000 0.001800 -0.001200
vn -0.002200 1.000000 0.006300
vn 0.024800 0.001900 0.999700
vn -0.020800 -0.002000 0.999800
vn -1.000000 -0.000000 -0.002400
vn 0.000800 -0.000000 -1.000000
vn -1.000000 0.002100 -0.000600
vn 1.000000 -0.001100 -0.000300
vn 1.000000 -0.000700 0.005200
vn -0.999700 0.001800 -0.024100
vn 0.025700 -0.001100 -0.999700
vn -0.003400 0.001300 -1.000000
vn 0.999800 0.001100 -0.020300
vn 1.000000 0.002500 -0.002800
vn -0.000100 1.000000 -0.003000
vn -0.023800 0.999600 -0.013000
vn 1.000000 -0.001200 -0.000300
vn 0.000100 1.000000 -0.003000
vn -0.003200 0.002200 1.000000
vn 0.000300 -1.000000 -0.000000
vn -0.002700 -0.002800 -1.000000
vn 0.000700 -1.000000 -0.001000
vn 0.000500 -1.000000 -0.000300
vn -0.007600 -1.000000 0.002600
vn -0.999800 -0.009100 0.020200
vn -0.001200 1.000000 -0.006500
vn -0.000200 -0.010100 -0.999900
vn -0.000400 0.022800 0.999700
vn -0.000700 -0.999800 -0.021300
vn 0.000600 0.999600 -0.028400
vn 0.000800 0.002200 -1.000000
vn 0.001000 -1.000000 -0.001300
vn 1.000000 -0.004500 -0.001900
vn -0.000400 0.020400 0.999800
usemtl None
s off
f 1//1 2//1 3//1 4//1
f 5//2 1//2 4//2 6//2
f 7//3 8//3 9//3 10//3 11//3 2//3 1//3 5//3
f 2//4 12//4 13//4 3//4
f 4//5 3//5 13//5 53//5 69//5 39//5 14//5 21//5
f 19//6 20//6 22//6 7//6 5//6 6//6 15//6 16//6 17//6 18//6
f 23//7 24//7 2//7 11//7 25//7 26//7 27//7 28//7 29//7 30//7 8//7 7//7 22//7 31//7
f 30//8 32//8 33//8 9//8 8//8
f 9//9 33//9 10//9
f 33//10 25//10 11//10 10//10
f 2//11 24//11 34//11 35//11 36//11 37//11 12//11
f 13//12 12//12 37//12 52//12 38//12 40//12 20//12 19//12 41//12 42//12 43//12 44//12 15//12 6//12
f 31//13 46//13 56//13 59//13 60//13 61//13 62//13 63//13 64//13 23//13
f 47//14 34//14 24//14 23//14
f 33//15 48//15 26//15 25//15
f 49//16 27//16 26//16 48//16
f 49//17 28//17 27//17
f 28//18 49//18 29//18
f 29//19 49//19 32//19 30//19
f 22//20 20//20 46//20 31//20
f 32//21 49//21 48//21 33//21
f 35//4 34//4 50//4
f 36//22 35//22 50//22 47//22 23//22 64//22 65//22 66//22 67//22 59//22 56//22 68//22 51//22
f 51//23 52//23 37//23 36//23
f 39//15 54//15 14//15
f 14//10 54//10 55//10 21//10
f 46//24 20//24 40//24 56//24
f 58//9 45//9 21//9 55//9
f 50//25 34//25 47//25
f 51//26 68//26 38//26 52//26
f 56//27 40//27 38//27 68//27
f 13//28 6//28 4//28 21//28 45//28 57//28 70//28 53//28
f 69//16 54//16 39//16
f 55//29 54//29 71//29 58//29
f 58//8 57//8 45//8
f 53//17 71//17 54//17 69//17
f 58//18 71//18 53//18 70//18
f 58//19 70//19 57//19
f 73//30 74//30 75//30 72//30
f 18//31 73//31 72//31 41//31 19//31
f 73//32 16//32 15//32 44//32 74//32
f 41//33 72//33 75//33 42//33
f 75//34 74//34 44//34 43//34
f 17//35 73//35 18//35
f 73//36 17//36 16//36
f 75//37 43//37 42//37
f 63//36 76//36 77//36 65//36 64//36
f 78//35 76//35 63//35 62//35
f 77//38 76//38 78//38 79//38
f 65//32 77//32 66//32
f 78//31 62//31 61//31
f 67//37 77//37 79//37 60//37 59//37
f 66//34 77//34 67//34
f 78//39 61//39 60//39 79//39
