# Blender v2.76 (sub 0) OBJ File: ''
# www.blender.org
mtllib 0004.mtl
o 0004_Cube.391
v -0.077514 0.004712 -0.015081
v -0.077492 -0.025234 -0.014868
v -0.077471 -0.025357 0.014971
v -0.077405 0.004585 0.015111
v 0.012704 0.004716 -0.015040
v 0.012511 -0.025157 -0.014940
v 0.012574 -0.025388 0.014958
v 0.012620 0.004642 0.014915
v 0.012672 -0.002787 -0.007563
v 0.012672 -0.002787 -0.007564
v 0.012607 -0.012768 -0.007495
v 0.012575 -0.017740 -0.007536
v 0.012586 -0.017665 -0.002492
v 0.012607 -0.017705 0.007302
v 0.012607 -0.017705 0.007473
v 0.012621 -0.007835 0.007618
v 0.012629 -0.002877 0.007601
v 0.012643 -0.002932 0.002595
v 0.024602 -0.002886 0.001332
v 0.024490 -0.002833 -0.002412
v 0.024512 -0.002814 -0.003730
v 0.031862 -0.002798 -0.003654
v 0.031868 -0.002796 -0.003824
v 0.036226 -0.002787 -0.003706
v 0.039340 -0.002781 -0.003591
v 0.042615 -0.002716 -0.007613
v 0.042436 -0.017668 -0.007510
v 0.024557 -0.017679 -0.001351
v 0.024709 -0.017699 0.003729
v 0.031991 -0.017705 0.003810
v 0.032034 -0.017705 0.003808
v 0.032040 -0.017705 0.003715
v 0.036046 -0.017708 0.003741
v 0.039237 -0.017710 0.003712
v 0.042606 -0.017728 0.007405
v 0.042604 -0.002934 0.007623
v 0.039246 -0.002886 0.003704
v 0.034802 -0.002897 0.003744
v 0.032045 -0.002903 0.003726
v 0.032041 -0.002904 0.003778
v 0.030755 -0.002908 0.003828
v 0.024675 -0.002921 0.003761
v 0.031880 0.012148 -0.003678
v 0.031885 0.012148 -0.003819
v 0.037481 0.012162 -0.003667
v 0.039355 0.012166 -0.003598
v 0.039325 -0.017681 -0.003584
v 0.034975 -0.017677 -0.003745
v 0.031851 -0.017674 -0.003830
v 0.031844 -0.017675 -0.003630
v 0.024489 -0.017669 -0.003702
v 0.024488 -0.017670 -0.003668
v 0.039213 -0.055393 0.003732
v 0.032036 -0.018224 0.003714
v 0.031767 -0.018226 0.003713
v 0.031860 -0.055372 0.003685
v 0.039256 0.012181 0.003696
v 0.033536 0.012167 0.003747
v 0.032050 0.012164 0.003738
v 0.024535 0.012132 -0.003757
v 0.024492 0.012138 -0.001145
v 0.024520 0.012139 -0.000200
v -0.001289 0.012069 -0.007580
v 0.039287 -0.055414 -0.003566
v 0.031808 -0.055388 -0.003843
v 0.031736 -0.018201 -0.000711
v 0.031831 -0.018185 -0.003313
v 0.031843 -0.018176 -0.003640
v 0.088715 0.012268 -0.007441
v -0.001365 0.012083 0.007388
v 0.031323 0.012162 0.003776
v 0.032049 0.012164 0.003748
v 0.024617 0.012143 0.003031
v 0.088652 0.012315 0.007555
v 0.024639 0.012144 0.003793
v 0.029497 0.012157 0.003846
v -0.001214 0.027308 -0.007552
v 0.088703 0.027158 -0.007439
v 0.088813 0.027280 0.007547
v -0.001382 0.027268 0.007506
v 0.024550 0.027300 -0.003231
v 0.024559 0.027296 -0.003785
v 0.031899 0.027284 -0.003702
v 0.031903 0.027283 -0.003813
v 0.038750 0.027273 -0.003628
v 0.039370 0.027272 -0.003605
v 0.039329 0.027296 -0.000752
v 0.039265 0.027284 0.003688
v 0.032266 0.027282 0.003751
v 0.031654 0.027282 0.003747
v 0.031654 0.027282 0.003733
v 0.028233 0.027282 0.003865
v 0.024604 0.027281 0.003825
v 0.024494 0.027291 0.000137
v 0.031907 0.034165 -0.003713
v 0.031911 0.034558 -0.003811
v 0.039377 0.034738 -0.003608
v 0.039270 0.034581 0.003684
v 0.031635 0.034785 0.003752
v 0.031636 0.034399 0.003720
v 0.031907 0.034561 -0.003714
v 0.032007 0.034558 -0.003713
v 0.032173 0.034562 -0.003709
v 0.032171 0.034559 -0.003546
v 0.031636 0.034784 0.003719
v 0.032060 0.034773 0.003703
v 0.031636 0.034742 0.003719
v 0.032077 0.071804 0.003628
v 0.032183 0.071800 -0.003760
v 0.024629 0.071972 -0.003867
v 0.024499 0.071992 0.003920
v 0.024488 -0.018071 -0.003702
v 0.024711 -0.018296 0.003728
v 0.032034 -0.018224 0.003809
vn -1.000000 0.000700 0.002200
vn -0.000200 -0.005200 -1.000000
vn 0.000300 -1.000000 -0.005900
vn -0.000300 1.000000 0.003400
vn 1.000000 -0.006500 -0.002100
vn 0.001200 -0.001600 1.000000
vn 1.000000 -0.001500 0.002800
vn -0.002300 0.999900 0.014300
vn -0.001600 -0.006900 -1.000000
vn 0.000900 0.008200 -1.000000
vn 0.002400 -0.999900 0.014700
vn -0.000700 -1.000000 -0.004000
vn 0.002200 -0.014700 0.999900
vn -0.000700 0.003400 1.000000
vn 0.001900 0.999900 -0.011000
vn -0.999300 0.001200 -0.036500
vn 0.027100 0.000300 -0.999600
vn 0.037000 -0.000500 -0.999300
vn 1.000000 -0.005900 -0.005300
vn -0.006500 -0.000800 1.000000
vn 0.008900 0.000500 1.000000
vn 0.999900 -0.000800 0.013200
vn 0.002200 -1.000000 0.001900
vn 0.999900 -0.000800 0.011200
vn -0.003200 -1.000000 0.002500
vn -1.000000 -0.002500 0.006900
vn 0.002500 -1.000000 0.002600
vn 0.002500 -1.000000 0.000900
vn 0.002600 -1.000000 0.002000
vn -1.000000 0.001900 -0.008100
vn 0.001400 0.001000 -1.000000
vn 1.000000 -0.005000 -0.001500
vn -0.001200 -0.003600 1.000000
vn 0.001700 1.000000 -0.008100
vn -0.000100 1.000000 0.002700
vn 0.999900 -0.000800 0.014500
vn -0.024700 0.999500 0.021100
vn 0.026500 0.999200 -0.029100
vn 0.026500 0.999200 -0.029000
vn -0.999300 0.001100 -0.036600
vn 0.023800 0.999700 -0.001200
vn 0.999900 -0.000300 0.014800
vn 0.012700 -0.001600 -0.999900
vn 0.038500 0.002000 0.999300
vn -0.999900 0.001500 -0.016700
vn -0.011100 -0.002200 0.999900
vn -0.999600 -0.002400 0.029900
vn 0.009200 0.009500 -0.999900
vn -0.013900 -0.999500 -0.029900
vn 0.009900 -0.999900 -0.005700
vn 0.999100 -0.004800 0.041000
vn 0.010500 -0.001700 -0.999900
vn 0.996000 -0.000400 0.089700
usemtl None
s off
f 4//1 1//1 2//1 3//1
f 1//2 5//2 6//2 2//2
f 3//3 2//3 6//3 7//3
f 8//4 5//4 1//4 4//4
f 5//5 9//5 10//5 11//5 12//5 13//5 14//5 7//5 6//5
f 8//6 4//6 3//6 7//6
f 5//7 8//7 7//7 14//7 15//7 16//7 17//7 18//7 9//7
f 18//8 19//8 20//8 21//8 22//8 23//8 24//8 25//8 26//8 10//8 9//8
f 10//9 26//9 27//9 11//9
f 11//10 27//10 12//10
f 12//11 27//11 13//11
f 14//12 13//12 28//12 29//12 30//12 31//12 32//12 33//12 34//12 35//12 15//12
f 15//13 35//13 36//13 16//13
f 16//14 36//14 17//14
f 17//15 36//15 18//15
f 18//8 36//8 26//8 25//8 37//8 38//8 39//8 40//8 41//8 42//8 19//8
f 43//16 44//16 23//16 22//16
f 45//17 24//17 23//17 44//17
f 46//18 25//18 24//18 45//18
f 26//19 36//19 35//19 27//19
f 13//12 27//12 35//12 34//12 47//12 48//12 49//12 50//12 51//12 52//12 28//12
f 53//20 33//20 32//20 54//20 55//20 56//20
f 53//21 34//21 33//21
f 25//22 46//22 57//22 37//22
f 37//21 57//21 58//21 38//21
f 39//20 38//20 58//20 59//20
f 62//23 63//23 69//23 57//23 46//23 45//23 44//23 43//23 60//23 61//23
f 53//24 64//24 47//24 34//24
f 47//18 64//18 65//18 48//18
f 48//17 65//17 49//17
f 49//16 65//16 66//16 67//16 68//16 50//16
f 53//25 56//25 65//25 64//25
f 66//26 65//26 56//26 55//26
f 74//27 70//27 71//27 72//27 59//27 58//27 57//27 69//27
f 73//28 70//28 63//28 62//28
f 70//29 73//29 75//29 76//29 71//29
f 63//30 70//30 80//30 77//30
f 77//31 78//31 69//31 63//31
f 74//32 69//32 78//32 79//32
f 70//33 74//33 79//33 80//33
f 79//34 78//34 77//34 81//34 82//34 83//34 84//34 85//34 86//34 87//34
f 79//35 87//35 88//35 89//35 90//35 91//35 92//35 93//35 94//35 81//35 77//35 80//35
f 95//16 96//16 84//16 83//16
f 97//17 85//17 84//17 96//17
f 97//18 86//18 85//18
f 86//36 97//36 98//36 88//36 87//36
f 88//21 98//21 99//21 89//21
f 89//20 99//20 90//20
f 91//26 90//26 99//26 100//26
f 101//16 96//16 95//16
f 96//37 102//37 103//37 104//37 98//37 97//37
f 105//38 99//38 98//38 104//38 106//38
f 100//16 99//16 107//16
f 96//39 101//39 102//39
f 107//40 99//40 105//40
f 109//41 110//41 111//41 108//41
f 103//42 109//42 108//42 106//42 104//42
f 109//43 103//43 102//43 101//43 95//43 83//43 82//43 110//43
f 106//44 108//44 111//44 92//44 91//44 100//44 107//44 105//44
f 111//45 110//45 82//45 81//45 94//45
f 92//46 111//46 93//46
f 111//47 94//47 93//47
f 68//48 112//48 51//48 50//48
f 67//49 113//49 112//49 68//49
f 51//45 112//45 52//45
f 54//50 114//50 113//50 67//50 66//50 55//50
f 52//47 112//47 113//47 29//47 28//47
f 114//51 54//51 32//51 31//51
f 114//46 30//46 29//46 113//46
f 114//44 31//44 30//44
f 21//52 60//52 43//52 22//52
f 60//45 21//45 20//45 61//45
f 61//47 20//47 19//47 42//47 75//47 73//47 62//47
f 41//46 76//46 75//46 42//46
f 40//44 72//44 71//44 76//44 41//44
f 72//53 40//53 39//53 59//53
